<svg width="47" height="43" fill="none" xmlns="http://www.w3.org/2000/svg"><g filter="url(#filter0_dd_149_106)"><mask id="a" maskUnits="userSpaceOnUse" x="2.649" y="3.151" width="41" height="36" fill="#000"><path fill="#fff" d="M2.649 3.151H43.649V39.150999999999996H2.649z"/><path fill-rule="evenodd" clip-rule="evenodd" d="M34.759 26.528l1.885 3.98c.395.796.51 1.702.325 2.57a3.865 3.865 0 0 1-3.759 3.003 3.872 3.872 0 0 1-3.482-2.201l-1.66-3.495-.002-.002-.007.003-.529-1.11.527 1.107a17.673 17.673 0 0 1-5.66.954 17.312 17.312 0 0 1-5.23-.838l-.005-.002v.002l-.007-.002-1.57 3.304a3.942 3.942 0 0 1-3.113 2.264 3.845 3.845 0 0 1-2.382-.524 3.75 3.75 0 0 1-1.384-1.415 3.845 3.845 0 0 1-.124-3.55l1.816-3.82a19.78 19.78 0 0 0 2.078 1.535 20.003 20.003 0 0 0 .006.002 19.772 19.772 0 0 1-2.078-1.534l.002-.004c-2.003-1.693-3.544-3.711-4.447-5.852-.782-1.833-.038-4.143 1.734-5.047a3.849 3.849 0 0 1 5.363 2.038c.225.52.514 1.011.862 1.46l5.237-11.005a3.856 3.856 0 0 1 6.962 0l5.13 10.792.002.002a11.626 11.626 0 0 0 2.463-5.067 3.861 3.861 0 0 1 3.774-3.111 3.865 3.865 0 0 1 3.208 1.715 3.818 3.818 0 0 1 .578 2.895c-.855 4.295-3.26 8.137-6.513 10.953zm-14.24-3.11h.003c.614.136 1.24.206 1.868.21a9.854 9.854 0 0 0 2.32-.283h.002l-1.677-3.51a.45.45 0 0 0-.811 0l-1.705 3.583z"/></mask><path fill-rule="evenodd" clip-rule="evenodd" d="M34.759 26.528l1.885 3.98c.395.796.51 1.702.325 2.57a3.865 3.865 0 0 1-3.759 3.003 3.872 3.872 0 0 1-3.482-2.201l-1.66-3.495-.002-.002-.007.003-.529-1.11.527 1.107a17.673 17.673 0 0 1-5.66.954 17.312 17.312 0 0 1-5.23-.838l-.005-.002v.002l-.007-.002-1.57 3.304a3.942 3.942 0 0 1-3.113 2.264 3.845 3.845 0 0 1-2.382-.524 3.75 3.75 0 0 1-1.384-1.415 3.845 3.845 0 0 1-.124-3.55l1.816-3.82a19.78 19.78 0 0 0 2.078 1.535 20.003 20.003 0 0 0 .006.002 19.772 19.772 0 0 1-2.078-1.534l.002-.004c-2.003-1.693-3.544-3.711-4.447-5.852-.782-1.833-.038-4.143 1.734-5.047a3.849 3.849 0 0 1 5.363 2.038c.225.52.514 1.011.862 1.46l5.237-11.005a3.856 3.856 0 0 1 6.962 0l5.13 10.792.002.002a11.626 11.626 0 0 0 2.463-5.067 3.861 3.861 0 0 1 3.774-3.111 3.865 3.865 0 0 1 3.208 1.715 3.818 3.818 0 0 1 .578 2.895c-.855 4.295-3.26 8.137-6.513 10.953zm-14.24-3.11h.003c.614.136 1.24.206 1.868.21a9.854 9.854 0 0 0 2.32-.283h.002l-1.677-3.51a.45.45 0 0 0-.811 0l-1.705 3.583z" fill="#fff" fill-opacity=".91" shape-rendering="crispEdges"/><path d="M36.644 30.508l-1.944.921.009.017.008.017 1.927-.955zm-1.885-3.98L33.35 24.9l-1.236 1.07.7 1.478 1.944-.921zm2.21 6.55l2.097.48.004-.017.004-.017-2.105-.445zm-3.759 3.003l-.006 2.151h.01l-.004-2.15zm-2.058-.599l1.15-1.818-1.15 1.818zm-1.424-1.602l-1.943.923.002.005 1.94-.928zm-1.66-3.495l1.942-.923v-.002l-1.943.925zm-.002-.002l1.943-.924-.824-1.73-1.812.618.694 2.036zm-.007.003l-1.941.925.823 1.728 1.812-.617-.694-2.036zm-.529-1.11l1.942-.926-3.885 1.849 1.943-.924zm.527 1.107l.697 2.035 2.28-.781L30 29.46l-1.943.923zm-5.66.954l-.013 2.151h.02l-.008-2.15zm-5.23-.838l.662-2.047-.004-.001-.658 2.048zm-.005-.002l.658-2.048-1.791-.575-.809 1.698 1.942.925zm0 .002l-.659 2.048 1.791.575.81-1.698-1.943-.925zm-.007-.002l.658-2.048-1.792-.576-.808 1.7 1.942.924zm-1.57 3.304l-1.943-.923-.005.011-.006.012 1.954.9zm-3.113 2.264l.227 2.14.014-.002.013-.002-.254-2.136zm-2.382-.524l1.104-1.845-.009-.006-.008-.005-1.087 1.856zm-1.384-1.415l1.88-1.045-.004-.007-.004-.007-1.872 1.059zm-.496-1.76l-2.15.075 2.15-.075zm.372-1.79l1.942.927.001-.003-1.943-.924zm1.816-3.82l1.388-1.643-2.132-1.802-1.199 2.522 1.943.923zm2.078 1.535l-1.163 1.81h.002l1.16-1.81zm4.45 2.13l-.683 2.04 1.366-4.08-.684 2.04zm-4.444-2.128l-1.162 1.81 1.162-1.81zm-2.078-1.534l-1.942-.924-.712 1.497 1.266 1.07 1.388-1.643zm.002-.004l1.942.924.712-1.497-1.265-1.07-1.39 1.643zm-4.447-5.852l1.982-.836-.004-.009-1.978.845zm1.734-5.047l.977 1.916.007-.003.006-.003-.99-1.91zm1.55-.425l-.125-2.148.124 2.148zm1.587.244l.764-2.01-.764 2.01zm2.226 2.219l-2.008.77.015.042.018.04 1.975-.852zm.862 1.46l-1.701 1.317 2.14 2.764 1.503-3.157-1.942-.924zm5.237-11.005l-1.943-.924 1.943.924zm1.422-1.602l-1.148-1.82 1.148 1.82zm4.118 0l1.148-1.82-1.148 1.82zm1.422 1.602l1.943-.923v-.001l-1.943.924zm5.13 10.792l1.944-.924-1.943.924zm.002.002l-1.943.923 1.44 3.028 2.152-2.57-1.65-1.381zm2.463-5.067l2.105.444.003-.013.002-.013-2.11-.418zm1.332-2.229l1.368 1.66-1.368-1.66zm2.442-.882l.002-2.151h-.01l.008 2.15zm1.818.456l1.014-1.897-1.014 1.897zm1.39 1.259l-1.788 1.196.005.008 1.783-1.204zm.578 2.895l-2.108-.426-.001.006 2.11.42zm-20.75 7.844l.462-2.101-.006-.002-.456 2.103zm-.003-.001l-1.942-.924-1.166 2.45 2.652.576.456-2.102zm1.87.21l-.014 2.151h.02l-.005-2.15zm2.322-.283l1.942-.925-.753-1.58-1.701.416.512 2.09zm0 0l-1.942.926.758 1.59 1.708-.429-.524-2.086zm.001 0l.524 2.087 2.55-.641-1.133-2.372-1.94.927zm-1.677-3.51l-1.945.918.004.009 1.941-.927zm-.811 0l1.942.924.003-.006-1.945-.918zm16.364 9.753l-1.885-3.981-3.888 1.842 1.886 3.98 3.887-1.841zm.486 3.936a6.099 6.099 0 0 0-.502-3.97l-3.855 1.91c.18.362.232.774.148 1.17l4.209.89zm-2.118 3.393a6.015 6.015 0 0 0 2.11-3.358l-4.194-.96a1.713 1.713 0 0 1-.6.957l2.684 3.361zm-3.742 1.315a6.015 6.015 0 0 0 3.742-1.315l-2.684-3.361a1.714 1.714 0 0 1-1.066.374l.008 4.302zm-3.211-.932a6.024 6.024 0 0 0 3.201.932l.012-4.302a1.723 1.723 0 0 1-.915-.266L30.002 37.3zm-2.216-2.492a6.024 6.024 0 0 0 2.216 2.492l2.298-3.636a1.722 1.722 0 0 1-.633-.712l-3.88 1.856zm-1.663-3.5l1.66 3.495 3.887-1.846-1.66-3.495-3.887 1.846zm0 0l.001.001 3.884-1.849v-.001l-3.885 1.849zm2.629 1.114a.616.616 0 0 1 .008-.003l-1.388-4.072a.18.18 0 0 0-.007.003l1.387 4.072zM25.588 30.2l.53 1.11L30 29.461l-.53-1.111-3.883 1.85zM30 29.46l-.527-1.108-3.886 1.847.527 1.108L30 29.46zm-7.596 4.028c2.161-.008 4.306-.37 6.35-1.07l-1.394-4.07c-1.6.549-3.28.832-4.972.838l.016 4.302zm-5.898-.943c1.9.614 3.882.932 5.878.943l.024-4.302a15.16 15.16 0 0 1-4.58-.734l-1.322 4.093zm-.002 0l.005.002 1.316-4.096-.005-.002-1.316 4.096zm2.6-1.121v-.002l-3.884-1.85v.002l3.883 1.85zm-2.607 1.12l.006.003 1.316-4.096-.006-.002-1.316 4.096zm1.03 2.18l1.571-3.304-3.885-1.847-1.57 3.305 3.885 1.846zM15.59 37.08a6.092 6.092 0 0 0 1.95-2.378l-3.908-1.8a1.79 1.79 0 0 1-.573.699l2.53 3.479zM12.726 38.2a6.092 6.092 0 0 0 2.863-1.122l-2.53-3.48c-.248.18-.538.294-.842.33l.51 4.272zm-3.74-.814a5.996 5.996 0 0 0 3.713.817l-.455-4.278a1.694 1.694 0 0 1-1.05-.23l-2.209 3.69zm-2.16-2.216a5.902 5.902 0 0 0 2.177 2.227l2.174-3.713a1.6 1.6 0 0 1-.59-.604l-3.761 2.09zm-.766-2.73c.034.964.3 1.905.774 2.744l3.744-2.118a1.694 1.694 0 0 1-.218-.776l-4.3.15zm.581-2.79a5.996 5.996 0 0 0-.58 2.79l4.299-.15c-.01-.272.046-.542.164-.788L6.64 29.65zm1.814-3.818l-1.815 3.82 3.885 1.847 1.816-3.82-3.886-1.847zm5.183.648a17.628 17.628 0 0 1-1.852-1.368L9.01 28.4c.73.616 1.5 1.185 2.303 1.701l2.325-3.62zm3.97 1.9a17.855 17.855 0 0 1-3.971-1.9l-2.322 3.62c1.54.988 3.195 1.78 4.928 2.36l1.365-4.08zm-6.287 1.723a22.15 22.15 0 0 0 4.921 2.357l1.367-4.08a17.853 17.853 0 0 1-3.966-1.899l-2.322 3.622zM9.016 28.4c.73.617 1.5 1.186 2.303 1.702l2.325-3.62a17.651 17.651 0 0 1-1.852-1.367L9.016 28.4zm-.553-2.57l-.001.004 3.885 1.847.001-.003-3.885-1.848zm-4.486-4.093c1.053 2.497 2.818 4.78 5.04 6.66l2.778-3.285c-1.783-1.508-3.1-3.26-3.854-5.046l-3.964 1.671zm2.738-7.798c-2.858 1.458-3.925 5.018-2.734 7.807l3.956-1.689c-.374-.876.048-1.936.733-2.286L6.715 13.94zm2.403-.657a5.997 5.997 0 0 0-2.415.664l1.98 3.819c.212-.11.445-.174.683-.188l-.248-4.295zm2.476.382c-.789-.3-1.633-.43-2.476-.382l.248 4.295c.238-.014.477.023.7.108l1.528-4.021zm2.105 1.359a5.997 5.997 0 0 0-2.105-1.36l-1.528 4.022c.223.085.426.216.595.384l3.038-3.046zm1.365 2.1a5.997 5.997 0 0 0-1.365-2.1L10.66 18.07c.17.169.301.371.386.594l4.017-1.54zm.554.913a4.618 4.618 0 0 1-.588-.996l-3.949 1.706a8.913 8.913 0 0 0 1.136 1.924l3.401-2.634zm1.594-10.612L11.975 18.43l3.885 1.849 5.237-11.004-3.885-1.849zm2.217-2.497a6.006 6.006 0 0 0-2.217 2.497l3.885 1.849c.138-.291.356-.537.629-.709l-2.297-3.637zM22.636 4a6.007 6.007 0 0 0-3.207.928l2.297 3.637c.272-.172.588-.263.91-.263V4zm3.207.928A6.007 6.007 0 0 0 22.636 4v4.302c.322 0 .638.091.91.263l2.297-3.637zm2.217 2.497a6.006 6.006 0 0 0-2.217-2.497l-2.297 3.637c.273.172.49.418.63.709l3.884-1.849zm5.13 10.792L28.06 7.426l-3.885 1.847 5.13 10.791 3.885-1.847zm.002.003l-.002-.003-3.885 1.847.001.002 3.886-1.846zm-1.585-4.587a9.474 9.474 0 0 1-2.007 4.129l3.298 2.762a13.776 13.776 0 0 0 2.919-6.004l-4.21-.887zm2.069-3.446a6.013 6.013 0 0 0-2.074 3.471l4.22.836c.077-.387.285-.736.59-.987l-2.736-3.32zm3.802-1.373a6.013 6.013 0 0 0-3.803 1.373l2.737 3.32c.305-.252.687-.39 1.082-.391l-.016-4.302zm2.84.71a6.015 6.015 0 0 0-2.83-.71l-.004 4.302c.281 0 .558.07.806.202l2.029-3.794zm2.163 1.96a6.015 6.015 0 0 0-2.163-1.96l-2.028 3.794c.248.133.46.324.616.558l3.575-2.392zm.902 2.164a5.971 5.971 0 0 0-.907-2.172l-3.565 2.408c.124.183.21.39.254.607l4.218-.843zm-.002 2.354a5.97 5.97 0 0 0 .002-2.354l-4.218.843c.043.217.043.44 0 .658l4.216.853zm-7.214 12.152c3.577-3.097 6.258-7.35 7.215-12.159l-4.22-.84c-.752 3.78-2.883 7.212-5.81 9.746l2.815 3.253zm-15.19-6.838h-.002l-.912 4.204h.003l.912-4.204zm1.428.161a6.848 6.848 0 0 1-1.421-.16l-.924 4.202c.76.168 1.536.255 2.315.26l.03-4.302zm1.794-.221a7.704 7.704 0 0 1-1.814.221l.01 4.302a12.007 12.007 0 0 0 2.828-.345l-1.024-4.178zm2.454 1.165l-3.884 1.85 3.884-1.85zm-2.465-1.162l.006-.001h-.002l-.005.002 1.048 4.172a.708.708 0 0 0-.005.002l.001-.001.005-.001-1.048-4.172zm-3.094-.497l1.677 3.51 3.882-1.853-1.677-3.511-3.882 1.854zm.625.702a1.702 1.702 0 0 1-.629-.71l3.89-1.838a2.6 2.6 0 0 0-.959-1.086l-2.302 3.634zm.91.265c-.322 0-.638-.092-.91-.265l2.302-3.634a2.6 2.6 0 0 0-1.391-.403v4.302zm.912-.265a1.702 1.702 0 0 1-.911.265v-4.302a2.6 2.6 0 0 0-1.392.403l2.303 3.634zm.628-.71a1.702 1.702 0 0 1-.628.71l-2.303-3.634c-.416.264-.748.64-.959 1.086l3.89 1.837zm-1.707 3.588l1.704-3.583-3.884-1.849-1.705 3.584 3.885 1.848z" fill="#fff" mask="url(#a)"/></g><path d="M13.975 19.35l-1.72 3.616-1.794 3.774a19.77 19.77 0 0 0 2.078 1.534 20.003 20.003 0 0 0 4.68 2.206l1.733-3.644 1.627-3.426c-2.57-.56-5.136-2.134-6.604-4.06z" fill="#FDC43F"/><path d="M34.806 26.511l-3.51-7.384a12.978 12.978 0 0 1-2.744 2.495 11.663 11.663 0 0 1-3.79 1.706l3.354 7.039a19.74 19.74 0 0 0 4.728-2.357c.684-.46 1.34-.96 1.962-1.499z" fill="#FFE94E"/><path d="M12.532 28.273a19.769 19.769 0 0 1-2.078-1.535l-1.815 3.82a3.845 3.845 0 0 0 .123 3.55 3.75 3.75 0 0 0 1.384 1.415 3.845 3.845 0 0 0 2.382.524 3.942 3.942 0 0 0 3.113-2.265l1.57-3.304a19.999 19.999 0 0 1-4.68-2.206z" fill="#ED9C0F"/><path d="M40.75 12.661a3.864 3.864 0 0 0-3.208-1.715 3.862 3.862 0 0 0-3.774 3.112 11.625 11.625 0 0 1-2.465 5.07l3.51 7.383c3.253-2.815 5.66-6.658 6.516-10.954a3.82 3.82 0 0 0-.579-2.896z" fill="#F8D18E"/><path d="M24.765 23.327a9.855 9.855 0 0 1-2.32.283 8.995 8.995 0 0 1-1.869-.21c-2.564-.556-5.13-2.13-6.598-4.057a6.765 6.765 0 0 1-.867-1.468 3.848 3.848 0 0 0-5.364-2.037c-1.771.903-2.515 3.214-1.733 5.046.903 2.143 2.446 4.162 4.45 5.856a19.77 19.77 0 0 0 2.078 1.535 19.999 19.999 0 0 0 4.68 2.205 17.31 17.31 0 0 0 5.229.839 17.676 17.676 0 0 0 5.66-.954l-3.346-7.038z" fill="#F3B241"/><path d="M36.701 30.49l-1.887-3.984-3.51-7.384-5.13-10.791a3.856 3.856 0 0 0-6.963 0L13.97 19.344c1.467 1.927 4.04 3.51 6.604 4.06l1.707-3.588a.45.45 0 0 1 .811 0l1.677 3.512 3.355 7.038 1.66 3.495a3.872 3.872 0 0 0 3.483 2.202 3.864 3.864 0 0 0 3.759-3.003 3.948 3.948 0 0 0-.325-2.57z" fill="#F5C267"/><defs><filter id="filter0_dd_149_106" x=".099" y=".598" width="46.801" height="42.175" filterUnits="userSpaceOnUse" color-interpolation-filters="sRGB"><feFlood flood-opacity="0" result="BackgroundImageFix"/><feColorMatrix in="SourceAlpha" values="0 0 0 0 0 0 0 0 0 0 0 0 0 0 0 0 0 0 127 0" result="hardAlpha"/><feOffset dy="1.984"/><feGaussianBlur stdDeviation="1.276"/><feComposite in2="hardAlpha" operator="out"/><feColorMatrix values="0 0 0 0 0 0 0 0 0 0 0 0 0 0 0 0 0 0 0.09 0"/><feBlend in2="BackgroundImageFix" result="effect1_dropShadow_149_106"/><feColorMatrix in="SourceAlpha" values="0 0 0 0 0 0 0 0 0 0 0 0 0 0 0 0 0 0 127 0" result="hardAlpha"/><feOffset/><feGaussianBlur stdDeviation="1.701"/><feComposite in2="hardAlpha" operator="out"/><feColorMatrix values="0 0 0 0 0 0 0 0 0 0 0 0 0 0 0 0 0 0 0.11 0"/><feBlend in2="effect1_dropShadow_149_106" result="effect2_dropShadow_149_106"/><feBlend in="SourceGraphic" in2="effect2_dropShadow_149_106" result="shape"/></filter></defs></svg>