<svg width="319" height="291" fill="none" xmlns="http://www.w3.org/2000/svg"><path d="M23.698 164.305c-3.93-6.916-5.894-10.374-6.664-14.045a24 24 0 0 1 0-9.85c.77-3.67 2.735-7.128 6.664-14.045l51.586-90.791c4.02-7.076 6.03-10.613 8.862-13.188a24 24 0 0 1 8.682-5.052c3.636-1.19 7.706-1.19 15.844-1.19h102.113c8.138 0 12.207 0 15.844 1.19a24 24 0 0 1 8.682 5.052c2.831 2.575 4.841 6.112 8.861 13.188l51.587 90.791c3.929 6.917 5.894 10.375 6.664 14.045a24 24 0 0 1 0 9.85c-.77 3.671-2.735 7.129-6.664 14.045l-51.587 90.792c-4.02 7.075-6.03 10.613-8.861 13.188a24.01 24.01 0 0 1-8.682 5.052c-3.637 1.19-7.706 1.19-15.844 1.19H108.671c-8.137 0-12.206 0-15.843-1.19a24.01 24.01 0 0 1-8.682-5.052c-2.831-2.575-4.841-6.113-8.862-13.188l-51.586-90.792z" stroke="#fff" stroke-opacity=".25" stroke-width="32.04"/></svg>